<svg width="83" height="21" viewBox="0 0 83 21" fill="none" xmlns="http://www.w3.org/2000/svg">
<path d="M10.5372 3.61059C10.4467 3.76904 10.3486 3.886 10.243 3.96145C10.1449 4.02936 10.0204 4.06332 9.86946 4.06332C9.711 4.06332 9.53745 4.00673 9.34882 3.89354C9.16773 3.77282 8.94891 3.64077 8.69236 3.49741C8.43582 3.35404 8.134 3.22577 7.78691 3.11259C7.44736 2.99186 7.04368 2.9315 6.57586 2.9315C6.15332 2.9315 5.78359 2.98432 5.46668 3.08995C5.14977 3.18804 4.88191 3.32764 4.66309 3.50873C4.45182 3.68982 4.29336 3.90864 4.18773 4.16518C4.08209 4.41418 4.02927 4.68959 4.02927 4.99141C4.02927 5.37623 4.13491 5.69691 4.34618 5.95345C4.565 6.21 4.85173 6.42882 5.20636 6.60991C5.561 6.791 5.96468 6.95323 6.41741 7.09659C6.87014 7.23995 7.33418 7.39464 7.80955 7.56064C8.28491 7.71909 8.74895 7.90773 9.20168 8.12654C9.65441 8.33782 10.0581 8.60945 10.4127 8.94145C10.7674 9.26591 11.0503 9.66582 11.2616 10.1412C11.4804 10.6165 11.5898 11.1938 11.5898 11.8729C11.5898 12.6123 11.4615 13.3065 11.205 13.9554C10.956 14.5968 10.5863 15.1589 10.0958 15.6418C9.61291 16.1172 9.02059 16.4945 8.31886 16.7736C7.61714 17.0453 6.81355 17.1811 5.90809 17.1811C5.38745 17.1811 4.87436 17.1283 4.36882 17.0226C3.86327 16.9245 3.37659 16.7812 2.90877 16.5925C2.4485 16.4039 2.01464 16.1775 1.60718 15.9135C1.19973 15.6494 0.837546 15.3551 0.520636 15.0306L1.41477 13.5706C1.49023 13.465 1.58832 13.3782 1.70905 13.3103C1.82977 13.2348 1.95805 13.1971 2.09386 13.1971C2.2825 13.1971 2.48623 13.2763 2.70505 13.4348C2.92386 13.5857 3.18418 13.7555 3.486 13.9441C3.78782 14.1327 4.13868 14.3063 4.53859 14.4647C4.94605 14.6156 5.43273 14.6911 5.99864 14.6911C6.86636 14.6911 7.53791 14.4874 8.01327 14.0799C8.48864 13.6649 8.72632 13.0726 8.72632 12.303C8.72632 11.8729 8.61691 11.522 8.39809 11.2504C8.18682 10.9787 7.90386 10.7524 7.54923 10.5713C7.19459 10.3826 6.79091 10.2242 6.33818 10.0959C5.88545 9.96764 5.42518 9.82805 4.95736 9.67714C4.48955 9.52623 4.02927 9.34514 3.57655 9.13386C3.12382 8.92259 2.72014 8.64718 2.3655 8.30764C2.01086 7.96809 1.72414 7.54554 1.50532 7.04C1.29405 6.52691 1.18841 5.89686 1.18841 5.14986C1.18841 4.55377 1.30536 3.97277 1.53927 3.40686C1.78073 2.84095 2.12782 2.33918 2.58055 1.90154C3.03327 1.46391 3.59164 1.11304 4.25564 0.848954C4.91964 0.584863 5.68173 0.452818 6.54191 0.452818C7.50773 0.452818 8.39809 0.603727 9.213 0.905545C10.0279 1.20736 10.7221 1.62991 11.2955 2.17318L10.5372 3.61059ZM15.9261 13.9894C16.243 14.3742 16.5863 14.6458 16.9561 14.8043C17.3333 14.9627 17.7408 15.042 18.1784 15.042C18.601 15.042 18.982 14.9627 19.3216 14.8043C19.6611 14.6458 19.9478 14.4044 20.1817 14.0799C20.4232 13.7555 20.6081 13.348 20.7363 12.8575C20.8646 12.3595 20.9287 11.7748 20.9287 11.1032C20.9287 10.4241 20.8721 9.85068 20.759 9.38286C20.6533 8.9075 20.4986 8.52268 20.2949 8.22841C20.0912 7.93414 19.8422 7.71909 19.5479 7.58327C19.2612 7.44745 18.933 7.37955 18.5632 7.37955C17.9822 7.37955 17.488 7.50405 17.0806 7.75304C16.6731 7.9945 16.2883 8.33782 15.9261 8.783V13.9894ZM15.779 6.97209C16.2543 6.43636 16.7938 6.0025 17.3975 5.6705C18.0011 5.3385 18.7104 5.1725 19.5253 5.1725C20.1591 5.1725 20.7363 5.30454 21.257 5.56864C21.7851 5.83273 22.2379 6.21754 22.6151 6.72309C23 7.22109 23.2942 7.83982 23.498 8.57927C23.7092 9.31118 23.8149 10.1525 23.8149 11.1032C23.8149 11.971 23.6979 12.7745 23.464 13.514C23.2301 14.2535 22.8943 14.8948 22.4567 15.4381C22.0266 15.9814 21.5022 16.4077 20.8835 16.717C20.2723 17.0189 19.5856 17.1698 18.8236 17.1698C18.1746 17.1698 17.6201 17.0717 17.1598 16.8755C16.6995 16.6718 16.2883 16.3926 15.9261 16.038V20.7916H13.1305V5.38755H14.8396C15.2017 5.38755 15.4394 5.55732 15.5526 5.89686L15.779 6.97209ZM33.0247 9.85823C33.0247 9.49605 32.9719 9.1565 32.8662 8.83959C32.7681 8.51514 32.6172 8.23218 32.4135 7.99073C32.2098 7.74927 31.9495 7.56064 31.6326 7.42482C31.3232 7.28145 30.961 7.20977 30.546 7.20977C29.7386 7.20977 29.1011 7.43991 28.6332 7.90018C28.173 8.36045 27.8787 9.01314 27.7504 9.85823H33.0247ZM27.6938 11.5446C27.7391 12.1407 27.8447 12.6576 28.0107 13.0952C28.1767 13.5253 28.3956 13.8837 28.6672 14.1705C28.9388 14.4496 29.2595 14.6609 29.6292 14.8043C30.0065 14.9401 30.4215 15.008 30.8742 15.008C31.327 15.008 31.7156 14.9552 32.04 14.8495C32.372 14.7439 32.6587 14.627 32.9002 14.4987C33.1492 14.3704 33.3642 14.2535 33.5453 14.1478C33.734 14.0422 33.9151 13.9894 34.0886 13.9894C34.3225 13.9894 34.4961 14.0761 34.6092 14.2497L35.4128 15.2683C35.1035 15.6305 34.7564 15.9361 34.3716 16.1851C33.9867 16.4265 33.5831 16.6227 33.1605 16.7736C32.7455 16.917 32.3192 17.0189 31.8816 17.0792C31.4515 17.1396 31.0327 17.1698 30.6252 17.1698C29.8179 17.1698 29.0671 17.0377 28.3729 16.7736C27.6787 16.502 27.0751 16.1059 26.562 15.5852C26.0489 15.057 25.6452 14.4081 25.351 13.6385C25.0567 12.8613 24.9095 11.9634 24.9095 10.9448C24.9095 10.1525 25.0378 9.40927 25.2944 8.71509C25.5509 8.01336 25.9169 7.40595 26.3922 6.89286C26.8751 6.37223 27.4599 5.961 28.1466 5.65918C28.8407 5.35736 29.6217 5.20645 30.4894 5.20645C31.2213 5.20645 31.8966 5.32341 32.5154 5.55732C33.1341 5.79123 33.6661 6.13455 34.1112 6.58727C34.5564 7.03245 34.9035 7.58327 35.1525 8.23973C35.4091 8.88864 35.5373 9.63186 35.5373 10.4694C35.5373 10.892 35.4921 11.1787 35.4015 11.3296C35.311 11.473 35.1374 11.5446 34.8809 11.5446H27.6938ZM39.797 6.81364C40.0309 6.57973 40.2762 6.36468 40.5327 6.1685C40.7968 5.96477 41.0722 5.795 41.3589 5.65918C41.6532 5.51582 41.9663 5.40641 42.2983 5.33095C42.6303 5.24795 42.9925 5.20645 43.3849 5.20645C44.0187 5.20645 44.5808 5.31586 45.0713 5.53468C45.5618 5.74595 45.9692 6.04777 46.2937 6.44014C46.6257 6.82495 46.8747 7.289 47.0407 7.83227C47.2142 8.368 47.301 8.96032 47.301 9.60923V17H44.5054V9.60923C44.5054 8.89995 44.3432 8.35291 44.0187 7.96809C43.6943 7.57573 43.2 7.37955 42.536 7.37955C42.0531 7.37955 41.6004 7.48895 41.1778 7.70777C40.7553 7.92659 40.3554 8.22464 39.9781 8.60191V17H37.1825V5.38755H38.8916C39.2538 5.38755 39.4914 5.55732 39.6046 5.89686L39.797 6.81364ZM56.7959 8.35291C56.479 7.96809 56.1319 7.69645 55.7546 7.538C55.3849 7.37954 54.985 7.30032 54.5549 7.30032C54.1323 7.30032 53.7513 7.37954 53.4117 7.538C53.0722 7.69645 52.7817 7.93791 52.5402 8.26236C52.2988 8.57927 52.1139 8.98673 51.9856 9.48473C51.8574 9.97518 51.7932 10.5562 51.7932 11.2277C51.7932 11.9068 51.8461 12.484 51.9517 12.9594C52.0649 13.4272 52.2233 13.812 52.4271 14.1139C52.6308 14.4081 52.8798 14.6232 53.1741 14.759C53.4683 14.8873 53.7966 14.9514 54.1587 14.9514C54.7397 14.9514 55.234 14.8307 55.6414 14.5892C56.0489 14.3478 56.4337 14.0045 56.7959 13.5593V8.35291ZM59.5915 0.181181V17H57.8824C57.5127 17 57.2788 16.8302 57.1807 16.4907L56.943 15.3702C56.4752 15.9059 55.9357 16.3398 55.3245 16.6718C54.7209 17.0038 54.0154 17.1698 53.208 17.1698C52.5742 17.1698 51.9932 17.0377 51.465 16.7736C50.9368 16.5095 50.4803 16.1285 50.0955 15.6305C49.7182 15.125 49.424 14.5025 49.2127 13.763C49.009 13.0235 48.9071 12.1785 48.9071 11.2277C48.9071 10.3675 49.0241 9.56773 49.258 8.82827C49.4919 8.08882 49.8276 7.44745 50.2653 6.90418C50.7029 6.36091 51.2273 5.93836 51.8385 5.63654C52.4497 5.32718 53.1363 5.1725 53.8984 5.1725C54.5473 5.1725 55.1019 5.27436 55.5622 5.47809C56.0225 5.68182 56.4337 5.95723 56.7959 6.30432V0.181181H59.5915ZM61.4903 15.4607C61.4903 15.2268 61.5318 15.0042 61.6148 14.793C61.7053 14.5817 61.826 14.4006 61.9769 14.2497C62.1279 14.0988 62.3089 13.978 62.5202 13.8875C62.7315 13.797 62.9579 13.7517 63.1993 13.7517C63.4408 13.7517 63.6634 13.797 63.8671 13.8875C64.0784 13.978 64.2594 14.0988 64.4104 14.2497C64.5688 14.4006 64.6933 14.5817 64.7839 14.793C64.8744 15.0042 64.9197 15.2268 64.9197 15.4607C64.9197 15.7022 64.8744 15.9285 64.7839 16.1398C64.6933 16.3435 64.5688 16.5209 64.4104 16.6718C64.2594 16.8227 64.0784 16.9396 63.8671 17.0226C63.6634 17.1132 63.4408 17.1585 63.1993 17.1585C62.9579 17.1585 62.7315 17.1132 62.5202 17.0226C62.3089 16.9396 62.1279 16.8227 61.9769 16.6718C61.826 16.5209 61.7053 16.3435 61.6148 16.1398C61.5318 15.9285 61.4903 15.7022 61.4903 15.4607ZM69.6463 0.181181V17H66.8507V0.181181H69.6463ZM82.5274 5.38755L76.2005 20.1917C76.1175 20.3879 76.0081 20.535 75.8723 20.6331C75.744 20.7388 75.5441 20.7916 75.2725 20.7916H73.1899L75.363 16.1285L70.666 5.38755H73.122C73.3408 5.38755 73.5106 5.44036 73.6313 5.546C73.7596 5.65164 73.8539 5.77236 73.9143 5.90818L76.3816 11.9295C76.4646 12.1332 76.5325 12.3369 76.5854 12.5406C76.6457 12.7444 76.7023 12.9519 76.7551 13.1631C76.823 12.9519 76.891 12.7444 76.9589 12.5406C77.0268 12.3294 77.1022 12.1219 77.1852 11.9181L79.5168 5.90818C79.5771 5.75727 79.6752 5.63277 79.811 5.53468C79.9544 5.43659 80.1129 5.38755 80.2864 5.38755H82.5274Z" fill="white"/>
</svg>
